<svg xmlns="http://www.w3.org/2000/svg" viewBox="0 0 122.92 126.51"><defs><style>.cls-1{fill:#3b444b;}</style></defs><title>Biking</title><g id="Calque_2" data-name="Calque 2"><g id="Calque_1-2" data-name="Calque 1"><path class="cls-1" d="M86.78,126.51H12.67a3.46,3.46,0,0,1,0-6.92H86.78a3.46,3.46,0,1,1,0,6.92ZM75.84,114.59c-6.74,0-12.11,0-17.67-.08-6,0-12.2-.08-20.58-.08a37.41,37.41,0,0,1-25.42-9.69,31.77,31.77,0,0,1,0-47.54,36.77,36.77,0,0,1,15.6-8.45l-8.62-22H3.46a3.46,3.46,0,0,1,0-6.92H36.61a3.46,3.46,0,1,1,0,6.92h-10l8.17,20.91c.94-.07,1.89-.1,2.84-.1a37.53,37.53,0,0,1,24.86,9.18C64.37,58.38,70.92,64,77.26,69.4l.12.1,15.31-47H87.56a3.46,3.46,0,0,1,0-6.92h23L116.28,2.1a3.46,3.46,0,0,1,6.36,2.72L116,20.4a3.48,3.48,0,0,1-3.18,2.1H100L83.07,74.37c4.38,3.74,7,6,7.58,6.53a18.76,18.76,0,0,1,0,28A21.78,21.78,0,0,1,75.84,114.59ZM37.59,54.43A30.49,30.49,0,0,0,16.85,62.3a24.85,24.85,0,0,0,0,37.34,30.49,30.49,0,0,0,20.74,7.87c8.41,0,14.62,0,20.62.08,5.56,0,10.91.08,17.63.08A14.9,14.9,0,0,0,86,103.83,11.85,11.85,0,0,0,86,86c-.72-.66-7.07-6.09-13.21-11.33-6.35-5.43-12.92-11-14.88-12.77A30.62,30.62,0,0,0,37.59,54.43Z"/><path class="cls-1" d="M69.11,105.5H47.35a2.68,2.68,0,0,1,0-5.36H52.6l-6.94-7.65a12.51,12.51,0,1,1,4.46-3.06l9.72,10.71h9.27a2.68,2.68,0,1,1,0,5.36ZM41,73.84a7.09,7.09,0,1,0,7.09,7.09A7.1,7.1,0,0,0,41,73.84Z"/></g></g></svg>