<svg xmlns="http://www.w3.org/2000/svg" viewBox="0 0 121.11 95.83"><defs><style>.cls-1{fill:#3b444b;}</style></defs><title>Cardio</title><g id="Calque_2" data-name="Calque 2"><g id="Calque_1-2" data-name="Calque 1"><path class="cls-1" d="M121.11,32.53a31.62,31.62,0,0,1-1.67,10.12c-5.13,23.26-49.62,51.42-51.53,52.62a3.38,3.38,0,0,1-1.93.56A3.52,3.52,0,0,1,64,95.27a240.82,240.82,0,0,1-25.73-19.1,3.64,3.64,0,0,1-.43-5.08A3.68,3.68,0,0,1,43,70.66,243.44,243.44,0,0,0,66,87.93c13.37-8.71,42.86-30.88,46.46-47.19a26,26,0,0,0,1.37-8.18,25.45,25.45,0,0,0-13.18-22.31,26,26,0,0,0-31.89,6,3.76,3.76,0,0,1-5.58,0A26,26,0,0,0,31.3,10.22,25.48,25.48,0,0,0,18.11,32.53a25,25,0,0,0,1.27,7.83,28.05,28.05,0,0,0,2.86,7.14H43.32l7.22-16.63a3.63,3.63,0,0,1,6.84.59L62.69,54l6.88-11.28A3.64,3.64,0,0,1,72.68,41H85.75a3.61,3.61,0,0,1,0,7.22H74.69L64.32,65.24A3.59,3.59,0,0,1,61.25,67a2.5,2.5,0,0,1-.56,0,3.55,3.55,0,0,1-3-2.71L52.87,43.7,49,52.54a3.6,3.6,0,0,1-3.31,2.2H3.59a3.62,3.62,0,0,1,0-7.24H14.2a30.77,30.77,0,0,1-1.76-5.21,31.24,31.24,0,0,1-1.55-9.76,32.69,32.69,0,0,1,17-28.62A33.41,33.41,0,0,1,66,8.73a33.36,33.36,0,0,1,38.14-4.82,32.68,32.68,0,0,1,17,28.62"/></g></g></svg>