<svg xmlns="http://www.w3.org/2000/svg" viewBox="0 0 178.44 178.44"><defs><style>.cls-1{fill:none;stroke:#3b444b;stroke-linecap:round;stroke-width:4.39px;}.cls-2{fill:#3b444b;}</style></defs><title>Recharge téléphone</title><g id="Calque_2" data-name="Calque 2"><g id="Calque_1-2" data-name="Calque 1"><circle class="cls-1" cx="89.22" cy="89.22" r="87.03"/><path class="cls-2" d="M137.18,108.86v-4.62h2.6a6.93,6.93,0,0,0,6.93-6.93V81.13a6.93,6.93,0,0,0-6.93-6.93h-2.6V69.58a12.71,12.71,0,0,0-12.71-12.71H53.41A12.71,12.71,0,0,0,40.7,69.58v39.28a12.71,12.71,0,0,0,12.71,12.71h71.06A12.71,12.71,0,0,0,137.18,108.86Zm2.6-27.73V97.31h-2.6V81.13ZM53.41,114.64a5.78,5.78,0,0,1-5.78-5.78V69.58a5.78,5.78,0,0,1,5.78-5.78h71.06a5.78,5.78,0,0,1,5.78,5.78v39.28a5.78,5.78,0,0,1-5.78,5.78Z"/><polygon class="cls-2" points="115.23 95.14 85.6 76.08 85.6 88.12 62.66 83.31 92.29 102.37 92.29 90.32 115.23 95.14"/></g></g></svg>