<svg xmlns="http://www.w3.org/2000/svg" viewBox="0 0 178.77 177.81"><defs><style>.cls-1{fill:none;stroke:#3b444b;stroke-linecap:round;stroke-width:3.95px;}.cls-2{fill:#3b444b;}</style></defs><title>Climatisation</title><g id="Calque_2" data-name="Calque 2"><g id="Calque_1-2" data-name="Calque 1"><ellipse class="cls-1" cx="89.38" cy="88.91" rx="87.41" ry="86.93"/><path class="cls-2" d="M96.78,128.61V138a2.71,2.71,0,0,0,5.42,0v-9.34l5.59,5.57a2.72,2.72,0,0,0,3.83,0,2.68,2.68,0,0,0,0-3.81L102.2,121v-9l5.59,5.57a2.7,2.7,0,1,0,3.83-3.81l-9.42-9.4V93.57l9.4,5.4,3.47,12.82a2.71,2.71,0,0,0,5.23-1.4l-2-7.6,7.8,4.48,3.47,12.82a2.71,2.71,0,0,0,5.23-1.4l-2.05-7.6,8.13,4.67a2.73,2.73,0,0,0,3.71-1,2.68,2.68,0,0,0-1-3.68l-8.13-4.67,7.65-2a2.7,2.7,0,1,0-1.4-5.21l-12.89,3.42L121,98.12l7.66-2a2.7,2.7,0,1,0-1.4-5.21l-12.9,3.42-9.4-5.39,9.4-5.4,12.9,3.42a2.7,2.7,0,1,0,1.4-5.21l-7.65-2,7.81-4.48,12.89,3.43a2.7,2.7,0,1,0,1.4-5.22l-7.65-2,8.13-4.67a2.68,2.68,0,0,0,1-3.68,2.73,2.73,0,0,0-3.71-1l-8.13,4.67,2.05-7.6a2.68,2.68,0,0,0-1.91-3.3,2.72,2.72,0,0,0-3.32,1.9l-3.47,12.82L118.25,75l2-7.6a2.71,2.71,0,0,0-5.23-1.4L111.6,78.84l-9.4,5.4V73.44l9.42-9.39a2.69,2.69,0,0,0,0-3.82,2.72,2.72,0,0,0-3.83,0L102.2,65.8v-9l9.42-9.39a2.7,2.7,0,1,0-3.83-3.81l-5.59,5.57V39.87a2.71,2.71,0,0,0-5.42,0v88.74Z"/><path class="cls-2" d="M72.06,111.57A32.83,32.83,0,0,1,73.67,65a33.09,33.09,0,0,1,18.69-8.61V51a38.25,38.25,0,0,0,0,76.13V121.8a32.82,32.82,0,0,1-20.3-10.23"/><path class="cls-2" d="M62,58.39a2.67,2.67,0,1,0,3.78-3.76L55.6,44.51a2.69,2.69,0,0,0-3.77,0,2.64,2.64,0,0,0,0,3.76Z"/><path class="cls-2" d="M53.43,89a2.65,2.65,0,0,0-2.67-2.65H36.37a2.66,2.66,0,1,0,0,5.31H50.76A2.66,2.66,0,0,0,53.43,89"/><path class="cls-2" d="M62.71,119.37,52.53,129.49a2.66,2.66,0,0,0,0,3.76,2.69,2.69,0,0,0,3.77,0l10.18-10.13a2.66,2.66,0,0,0-3.77-3.75"/><path class="cls-2" d="M76,47.63a2.67,2.67,0,0,0,3.49,1.44,2.64,2.64,0,0,0,1.44-3.47l-5.5-13.23a2.67,2.67,0,0,0-4.94,2Z"/><path class="cls-2" d="M39.51,68.63l13.3,5.48a2.66,2.66,0,1,0,2-4.91l-13.3-5.47a2.66,2.66,0,1,0-2.05,4.9"/><path class="cls-2" d="M56.68,105.67a2.67,2.67,0,0,0-3.49-1.43l-13.3,5.48a2.66,2.66,0,1,0,2,4.9l13.3-5.48a2.65,2.65,0,0,0,1.44-3.47"/><path class="cls-2" d="M80.41,128.74a2.67,2.67,0,0,0-3.49,1.44l-5.5,13.23a2.65,2.65,0,0,0,1.44,3.47,2.69,2.69,0,0,0,3.49-1.44l5.5-13.23a2.65,2.65,0,0,0-1.44-3.47"/></g></g></svg>