<svg xmlns="http://www.w3.org/2000/svg" viewBox="0 0 162.81 131.72"><defs><style>.cls-1{fill:#3b444b;}</style></defs><title>Cours collectifs</title><g id="Calque_2" data-name="Calque 2"><g id="Calque_1-2" data-name="Calque 1"><path class="cls-1" d="M119,131.72a3.57,3.57,0,0,1-3.57-3.57V117.39H65.31v10.76a3.57,3.57,0,0,1-7.14,0V113.82a3.57,3.57,0,0,1,3.57-3.57H119a3.57,3.57,0,0,1,3.57,3.57v14.33A3.57,3.57,0,0,1,119,131.72ZM14.15,128.85a3.58,3.58,0,0,1-3.4-4.67L28,71.14a3.57,3.57,0,1,1,6.79,2.21l-17.24,53A3.57,3.57,0,0,1,14.15,128.85Zm67.57-28.64a3.57,3.57,0,0,1-3.35-2.32L68.27,71,37.58,62.33a3.57,3.57,0,1,1,1.93-6.87L72,64.57a3.54,3.54,0,0,1,2.37,2.18L85.06,95.39A3.56,3.56,0,0,1,83,100,3.45,3.45,0,0,1,81.72,100.21ZM76.06,48.67H62a3.56,3.56,0,0,1-2.48-1L42.63,31.41a3.57,3.57,0,0,1,5-5.14L63.41,41.53H76.06a3.57,3.57,0,0,1,0,7.14ZM3.57,38.38a3.57,3.57,0,0,1-2-6.52L29.38,13a3.57,3.57,0,0,1,4.53.43l6.49,6.49a3.57,3.57,0,0,1-5,5L31,20.55,5.57,37.77A3.58,3.58,0,0,1,3.57,38.38ZM56.71,21.46A10.73,10.73,0,1,1,67.44,10.73,10.75,10.75,0,0,1,56.71,21.46Zm0-14.32a3.59,3.59,0,1,0,3.58,3.59A3.6,3.6,0,0,0,56.71,7.14Z"/><path class="cls-1" d="M160.13,104.32a2.68,2.68,0,0,1-2.68-2.67v-5.6H129.7v5.6a2.68,2.68,0,0,1-5.36,0V93.37A2.68,2.68,0,0,1,127,90.69h33.11a2.68,2.68,0,0,1,2.68,2.68v8.28A2.68,2.68,0,0,1,160.13,104.32Zm-60.62-1.65A2.68,2.68,0,0,1,97,99.16l10-30.65a2.68,2.68,0,0,1,5.1,1.65l-10,30.66A2.69,2.69,0,0,1,99.51,102.67Zm39.06-16.55a2.7,2.7,0,0,1-2.51-1.74L130.33,69.1l-17.44-4.9A2.68,2.68,0,1,1,114.34,59l18.75,5.26a2.7,2.7,0,0,1,1.78,1.64l6.21,16.56A2.68,2.68,0,0,1,139.51,86,2.79,2.79,0,0,1,138.57,86.12Zm-3.27-29.8h-8.15a2.69,2.69,0,0,1-1.86-.75l-9.74-9.4a2.68,2.68,0,0,1,3.73-3.86L128.23,51h7.07a2.68,2.68,0,0,1,0,5.36Zm-41.9-6a2.68,2.68,0,0,1-1.51-4.89L108,34.57a2.68,2.68,0,0,1,3.4.32l3.75,3.75a2.68,2.68,0,0,1-3.79,3.79l-2.18-2.18L94.9,49.91A2.67,2.67,0,0,1,93.4,50.37Zm30.71-9.77a6.83,6.83,0,1,1,6.82-6.83A6.84,6.84,0,0,1,124.11,40.6Zm0-8.29a1.47,1.47,0,1,0,1.46,1.46A1.46,1.46,0,0,0,124.11,32.31Z"/></g></g></svg>