<svg xmlns="http://www.w3.org/2000/svg" viewBox="0 0 83.81 109.21"><defs><style>.cls-1{fill:none;stroke:#3b444b;stroke-linecap:round;stroke-miterlimit:10;stroke-width:4.09px;}</style></defs><title>Cross training</title><g id="Calque_2" data-name="Calque 2"><g id="Calque_1-2" data-name="Calque 1"><path class="cls-1" d="M62.42,107.17h-41a7.1,7.1,0,0,1-4-1.24h-.06l-.56-.38-.22-.19-.14-.13q-.17-.14-.33-.3a39.42,39.42,0,0,1-7.75-51.6A32.23,32.23,0,0,1,2.43,34.75,32.75,32.75,0,0,1,35.13,2H49a32.75,32.75,0,0,1,32.7,32.71,32.19,32.19,0,0,1-6.07,18.76,39.47,39.47,0,0,1-7.88,51.41c-.13.13-.26.24-.39.36s-.26.23-.36.31l-.45.34h-.12A7.1,7.1,0,0,1,62.42,107.17ZM18.7,102.71l.28.18a4,4,0,0,0,2.41.88h41a4,4,0,0,0,2.41-.88l.46-.35a.12.12,0,0,0,0-.05l.11-.1a36.1,36.1,0,0,0,6.67-48l-.68-1,.74-1a29,29,0,0,0,6.09-17.68A29.34,29.34,0,0,0,49,5.44H35.13A29.34,29.34,0,0,0,5.81,34.75a29,29,0,0,0,6,17.52l.73,1-.69,1a36.08,36.08,0,0,0,6.55,48.16l.14.13.15.13ZM63,45.12l-1.48-.95a35.95,35.95,0,0,0-39-.11L21,45l-.89-1.52a17.15,17.15,0,0,1-2.42-8.73A17.46,17.46,0,0,1,35.13,17.31H49A17.33,17.33,0,0,1,63.9,43.61ZM41.9,35a39.65,39.65,0,0,1,19.89,5.39A13.48,13.48,0,0,0,63,34.75a14.06,14.06,0,0,0-14-14H35.13A14.06,14.06,0,0,0,21.08,34.75a13.52,13.52,0,0,0,1.18,5.49A39.54,39.54,0,0,1,41.9,35Z"/></g></g></svg>