<svg xmlns="http://www.w3.org/2000/svg" viewBox="0 0 178.44 178.44"><defs><style>.cls-1{fill:none;stroke:#3b444b;stroke-linecap:round;stroke-width:4.39px;}.cls-2{fill:#3b444b;}</style></defs><title>Distributeur</title><g id="Calque_2" data-name="Calque 2"><g id="Calque_1-2" data-name="Calque 1"><circle class="cls-1" cx="89.22" cy="89.22" r="87.03"/><path class="cls-2" d="M59.56,93.28c0-12.43,0-24.85,0-37.28A17.74,17.74,0,0,1,64,43.86a7,7,0,0,0,1.2-2.06,2.05,2.05,0,0,0-.09-1.44,3.73,3.73,0,0,1,3.16-5.6A236.89,236.89,0,0,1,96.63,34c5.39.13,10.77.46,16.14.81,2.54.17,3.93,2.52,3.31,5a4.59,4.59,0,0,0,.15,2.54,30.58,30.58,0,0,0,2,4.47A18.72,18.72,0,0,1,120.64,56q0,37.41,0,74.81a8.88,8.88,0,0,1-3.8,7.78,6,6,0,0,0-2.33,3.27c-.76,2.61-3.1,3.21-5.33,3.73a66.59,66.59,0,0,1-15.24,1.25c-5.1,0-10.22,0-15.31-.31a56.63,56.63,0,0,1-8.53-1.41A5.77,5.77,0,0,1,66.25,142a12,12,0,0,0-3.16-3.25,9,9,0,0,1-3.55-7.54C59.58,118.54,59.56,105.91,59.56,93.28Zm6.25,26.21c0,4.1,0,8.2,0,12.3a1.86,1.86,0,0,0,1.86,2c6.5.43,13,1,19.49,1.2A188.45,188.45,0,0,0,112,133.79c1.58-.15,2.22-.87,2.22-2.53q0-11.22,0-22.43l-.13-41.42v-13l-48.14.48V76.84Zm47-69.16c0,.07,0,0,0-.08a7.49,7.49,0,0,1-.42-.72c-.94-2.25-2-4.47-2.74-6.78-.65-2-.49-2-2.6-2.13-9.6-.59-19.21-.53-28.82-.2-2.19.07-4.38.25-6.68.4,0,4-2.57,6.61-4.68,9.51Zm-43,87.36c.49,2.24,2,3.1,4.09,3.15.52,0,1,.18,1.55.19,6.22.21,12.45.56,18.67.55,4.29,0,8.58-.45,12.86-.82,2.56-.23,3-.74,3.58-3.08A198.21,198.21,0,0,1,69.88,137.69Z"/><path class="cls-2" d="M92,87.87H105.9L76.71,119.55l-.09,0,8.85-21.65H73.9c.06-.19.09-.32.14-.45,3.74-9,7.7-18.49,11.43-27.48.21,0,.15,0,.57,0h18.37Z"/></g></g></svg>