<svg xmlns="http://www.w3.org/2000/svg" viewBox="0 0 178.44 178.44"><defs><style>.cls-1{fill:none;stroke:#3b444b;stroke-linecap:round;stroke-width:4.39px;}.cls-2{fill:#3b444b;}</style></defs><title>Douche individuelle</title><g id="Calque_2" data-name="Calque 2"><g id="Calque_1-2" data-name="Calque 1"><circle class="cls-1" cx="89.22" cy="89.22" r="87.03"/><path class="cls-2" d="M117.64,101.88H63.19a3.84,3.84,0,0,1-3.79-3.79V93.54a3.85,3.85,0,0,1,3.79-3.8h54.45a3.86,3.86,0,0,1,3.8,3.92v4.43A3.84,3.84,0,0,1,117.64,101.88Zm-53.93-4.3h53.42V94.05H63.71Zm53.93-3.53h0Z"/><path class="cls-2" d="M90.36,105.45a4.35,4.35,0,0,0-4.3,4.3v9a4.3,4.3,0,0,0,8.59,0v-9A4.26,4.26,0,0,0,90.36,105.45Z"/><path class="cls-2" d="M90.36,131.73a4.35,4.35,0,0,0-4.3,4.3v9a4.3,4.3,0,1,0,8.59,0V135.9A4.23,4.23,0,0,0,90.36,131.73Z"/><path class="cls-2" d="M72.29,105.45a4.34,4.34,0,0,0-4.29,4.3v9a4.3,4.3,0,0,0,8.59,0v-9A4.43,4.43,0,0,0,72.29,105.45Z"/><path class="cls-2" d="M72.29,131.73A4.34,4.34,0,0,0,68,136v9a4.3,4.3,0,1,0,8.59,0V135.9A4.41,4.41,0,0,0,72.29,131.73Z"/><path class="cls-2" d="M108.55,105.45a4.35,4.35,0,0,0-4.3,4.3v9a4.3,4.3,0,0,0,8.59,0v-9A4.26,4.26,0,0,0,108.55,105.45Z"/><path class="cls-2" d="M108.55,131.73a4.35,4.35,0,0,0-4.3,4.3v9a4.3,4.3,0,1,0,8.59,0V135.9A4.23,4.23,0,0,0,108.55,131.73Z"/><path class="cls-2" d="M114.74,87.65H65.85a3.9,3.9,0,0,1-3.78-4.31A21.57,21.57,0,0,1,74.31,65.05V62a7.21,7.21,0,0,1,7.2-7.21h2.27V45.2a4.92,4.92,0,0,0-4.92-4.92H54.54a4.69,4.69,0,0,1-4.67-4.69V31.68A4.68,4.68,0,0,1,54.54,27H79A18.21,18.21,0,0,1,97.18,45.2v9.59h2.15a7.21,7.21,0,0,1,7.2,7.21v3.08c7.39,3.87,11.64,10.37,12,18.42a3.81,3.81,0,0,1-3.79,4.15Zm-.5-3.84v0Zm-47.89-.06h0Zm0-.41h47.82c-.6-8.55-6.14-12.84-10.73-15l-1.25-.57V62a2.9,2.9,0,0,0-2.9-2.9H92.88V45.2A13.91,13.91,0,0,0,79,31.31H54.54a.38.38,0,0,0-.37.37v3.91a.38.38,0,0,0,.37.38H78.86a9.24,9.24,0,0,1,9.23,9.23V59.1H81.51a2.9,2.9,0,0,0-2.9,2.9v5.83l-1.29.56A17.35,17.35,0,0,0,66.39,83.34Z"/></g></g></svg>