<svg xmlns="http://www.w3.org/2000/svg" viewBox="0 0 67.67 92.81"><defs><style>.cls-1{fill:#3c454b;}.cls-2{fill:#3b444b;}</style></defs><title>Équipements haut de Gamme</title><g id="Calque_2" data-name="Calque 2"><g id="Calque_1-2" data-name="Calque 1"><path class="cls-1" d="M64.68,35.79a6.67,6.67,0,0,0-1.47-1.67,16.47,16.47,0,0,0-9.68-3.37c-3.41-.07-6.88-.06-10.24-.06H38.72l-.41,0V22.9h1.84a2,2,0,0,0,2.19-2,2,2,0,0,0-2.2-2H27.52a2.54,2.54,0,0,0-.92.14,1.92,1.92,0,0,0-1.23,2.08,2,2,0,0,0,1.91,1.74c.57,0,1.15,0,1.7,0h.38v7.79H15.47A18.48,18.48,0,0,0,7.3,32.42a11,11,0,0,0-4.06,3,2.21,2.21,0,0,0-.5,1.67,1.9,1.9,0,0,0,.79,1.28,2.08,2.08,0,0,0,2.91-.52A3.87,3.87,0,0,1,7.3,37a12.48,12.48,0,0,1,7.07-2.29c3.59,0,7.23,0,10.75,0h4.24V68.41h-.83V66.85c0-.93,0-1.89,0-2.84a2,2,0,0,0-2-2h0a2,2,0,0,0-2,2q0,.32,0,.63v3.84H23.42a3.62,3.62,0,0,0-3.76,3.84v1.06a3.62,3.62,0,0,0,3.94,4h.94v.42c0,.41,0,.82,0,1.22,0,.93,0,1.89,0,2.83a2,2,0,0,0,1.95,2h0a2,2,0,0,0,2-2c0-.34,0-.69,0-1V77.39h.85V88.78h-21a5.37,5.37,0,0,0-.89,0,2,2,0,0,0-1.18,3.3,2.61,2.61,0,0,0,1.94.67H59.39a3.74,3.74,0,0,0,.89-.07,2,2,0,0,0,1.33-1,2,2,0,0,0,.1-1.66,2.16,2.16,0,0,0-2.27-1.29H55.76c-5.6,0-11.39,0-17.09,0h0c-.31,0-.36,0-.36,0s0-.06,0-.38c0-2.5,0-5,0-7.49V78.3a4.15,4.15,0,0,1,0-1,2.81,2.81,0,0,1,.83,0v1.39c0,.89,0,1.82,0,2.73a3.45,3.45,0,0,0,.15,1.1,2,2,0,0,0,3.84-.73c0-.94,0-1.9,0-2.83,0-.45,0-.89,0-1.34,0-.11,0-.22,0-.34h.23c.41,0,.79,0,1.18,0A3.58,3.58,0,0,0,48,73.83c0-.5,0-1,0-1.49v0a3.68,3.68,0,0,0-3.85-3.84h-1v-4a4.76,4.76,0,0,0-.06-.81,2,2,0,0,0-3.93.26c0,1,0,1.93,0,2.87v1.36c0,.09,0,.18,0,.27h-.83V34.68h4c3.29,0,6.7,0,10,0a17.64,17.64,0,0,1,3.32.32,10,10,0,0,1,5.9,3.07,2,2,0,0,0,2.59.33A2,2,0,0,0,64.68,35.79ZM34.24,77.39V88.75h-.8V77.39ZM23.69,72.5h20a1.63,1.63,0,0,1,.31,0,5.61,5.61,0,0,1,0,.81H23.69ZM34.22,34.72V68.44h-.78V34.72Zm-.79-4.07V23h.79v7.7Z"/><polygon class="cls-2" points="24.33 8.38 21.04 10.11 21.67 6.45 19.01 3.86 22.69 3.33 24.33 0 25.97 3.33 29.65 3.86 26.99 6.45 27.61 10.11 24.33 8.38"/><polygon class="cls-2" points="62.36 15.54 59.07 17.27 59.7 13.61 57.04 11.02 60.71 10.48 62.36 7.16 64 10.48 67.67 11.02 65.01 13.61 65.64 17.27 62.36 15.54"/><polygon class="cls-2" points="5.32 15.54 2.03 17.27 2.66 13.61 0 11.02 3.67 10.48 5.32 7.16 6.96 10.48 10.63 11.02 7.97 13.61 8.6 17.27 5.32 15.54"/><polygon class="cls-2" points="43.34 8.38 40.06 10.11 40.69 6.45 38.03 3.86 41.7 3.33 43.34 0 44.99 3.33 48.66 3.86 46 6.45 46.63 10.11 43.34 8.38"/></g></g></svg>