<svg xmlns="http://www.w3.org/2000/svg" viewBox="0 0 168.22 120.4"><defs><style>.cls-1{fill:#3b444b;}</style></defs><title>Mobilité</title><g id="Calque_2" data-name="Calque 2"><g id="Calque_1-2" data-name="Calque 1"><path class="cls-1" d="M34.91,120.4c-4,0-8.59-2.12-13.24-6.22-6-5.26-11.48-13.25-15.55-22.51S-.13,72.93,0,65c.15-8.47,2.92-14.32,7.82-16.48s11.09-.26,17.45,5.35c5.95,5.26,11.47,13.25,15.55,22.51h0c4.08,9.26,6.25,18.74,6.11,26.68-.15,8.47-2.93,14.32-7.82,16.48A10.37,10.37,0,0,1,34.91,120.4ZM12,51.57a6.44,6.44,0,0,0-2.61.52C6,53.58,4,58.3,3.92,65.06c-.13,7.39,1.92,16.28,5.78,25s9,16.26,14.56,21.15c5.07,4.48,9.91,6.19,13.28,4.71s5.37-6.21,5.49-13c.13-7.39-1.92-16.28-5.78-25s-9-16.27-14.57-21.15C18.81,53.38,15.08,51.57,12,51.57Z"/><path class="cls-1" d="M33.37,117C24.61,117,14,106.88,7.12,91.22-.93,72.94,0,56.06,9.35,52s22.43,6.59,30.48,24.87S46.92,112,37.6,116.09A10.4,10.4,0,0,1,33.37,117ZM13.59,57.37a4.18,4.18,0,0,0-1.71.34c-5,2.2-5.64,15.92,1,31s17.19,23.85,22.2,21.64,5.64-15.92-1-31C28.12,65.83,19,57.37,13.59,57.37Z"/><path class="cls-1" d="M39.19,119.5,37.47,116c1.12-.55,112.64-55.2,122-59.89,7.82-3.91,4.39-22.46,1.64-29.54-6-15-13.13-19.66-18-21.9-4-1.82-10.46.18-12.64,1.1L9.32,52.13l-1.4-3.66L129,2.12c.32-.13,9.43-3.94,15.75-1,8.54,3.94,15.07,11.8,20,24,3.34,8.59,7.08,29.17-3.53,34.47C151.85,64.28,40.31,118.94,39.19,119.5Z"/><path class="cls-1" d="M53.86,111.28l-3.9-.4c4.83-46.79-29-63.57-29.32-63.74l1.69-3.52c.38.18,9.36,4.56,17.78,15.13C47.85,68.46,56.52,85.47,53.86,111.28Z"/><path class="cls-1" d="M63.53,106.88l-3.9-.4c4.83-46.79-29-63.57-29.32-63.74L32,39.21c.38.18,9.36,4.57,17.78,15.14C57.52,64.06,66.19,81.06,63.53,106.88Z"/><path class="cls-1" d="M96.86,90.34,93,89.63C101.66,43,65.51,30.42,65.14,30.29l1.24-3.71a48.79,48.79,0,0,1,18.82,13C93.18,48.38,101.69,64.33,96.86,90.34Z"/><path class="cls-1" d="M104.82,86.24,101,85.63C106.67,49.2,87.15,33.36,75,27.16c-1-.53-2.09-1.07-1.94-2.46L74.51,23l1,3.78L75,24.89l1.92.29a1.88,1.88,0,0,0-.8-1.84l.64.33C89.87,30.35,110.92,47.37,104.82,86.24Z"/><path class="cls-1" d="M112,83.75l-3.82-.84c9.57-43.79-24.53-58.71-26-59.32L83.66,20C84,20.14,122.24,36.7,112,83.75Z"/><path class="cls-1" d="M120,78.41l-3.85-.69c7.66-42.87-26.44-57.08-26.78-57.22l1.46-3.64C91.18,17,128.2,32.44,120,78.41Z"/><path class="cls-1" d="M127.75,74.92l-3.88-.51C129.6,30.89,98.37,18.54,97,18l1.38-3.66C98.77,14.5,133.9,28.23,127.75,74.92Z"/><path class="cls-1" d="M147,65.88l-3.78-1c4.75-17.51,2-32.18-8.08-43.59a46.86,46.86,0,0,0-16.64-12l1.37-3.67C120.23,5.77,159.17,20.82,147,65.88Z"/><path class="cls-1" d="M155.08,61.55l-3.78-1C162.54,19,128.11,6.92,126.64,6.43l1.24-3.71C128.28,2.85,167.3,16.43,155.08,61.55Z"/><rect class="cls-1" x="34.38" y="50.6" width="134.11" height="3.91" transform="translate(-12.54 44.77) rotate(-23.48)"/><rect class="cls-1" x="37.81" y="61.79" width="133.67" height="3.91" transform="translate(-16.92 48.36) rotate(-24.14)"/><rect class="cls-1" x="38.6" y="71.99" width="134.04" height="3.91" transform="translate(-21.45 52.09) rotate(-25.24)"/></g></g></svg>