<svg xmlns="http://www.w3.org/2000/svg" viewBox="0 0 106.53 148.3"><defs><style>.cls-1{fill:#3b444b;}</style></defs><title>Abdos stretching</title><g id="Calque_2" data-name="Calque 2"><g id="Calque_1-2" data-name="Calque 1"><g id="Calque_1-2-2" data-name="Calque 1-2"><path class="cls-1" d="M9.94,148.3a9.44,9.44,0,0,1-4-.89A9.71,9.71,0,0,1,0,137.78a30.53,30.53,0,0,1,1.14-5.92A520.86,520.86,0,0,1,30.17,57,108.46,108.46,0,0,1,77.78,7,102.07,102.07,0,0,1,91.3,1l.11,0A21.16,21.16,0,0,1,99.63.1a7.52,7.52,0,0,1,6.57,6.08,8.58,8.58,0,0,1-3.21,9.3,21.44,21.44,0,0,1-5,2.87A130.85,130.85,0,0,0,73.27,30.57a20.24,20.24,0,0,0-2.75,2.33l-.11.1a6,6,0,0,0-1.62,6.59,34.44,34.44,0,0,0,2.75,5.82c2,3.35,4.09,6.73,6.11,10s4.14,6.71,6.16,10.1A29.65,29.65,0,0,1,86.68,72,11.08,11.08,0,0,1,78,87.41c-5,1.19-10.19,2.17-15.18,3.11l-3.87.74a55.18,55.18,0,0,1-5.75,1.17l2.5,5.84,14.68,34.05a11,11,0,0,1-1.1,12.22,10,10,0,0,1-14,1.38,8,8,0,0,1-.69-.62,25.84,25.84,0,0,1-4.06-5.71c-3.65-6.77-7.32-13.68-10.88-20.37q-3.24-6.1-6.48-12.19Q27,122.81,20.81,138.65l-.28.71A21.51,21.51,0,0,1,17.2,145,9.64,9.64,0,0,1,9.94,148.3Zm82.85-143A97.38,97.38,0,0,0,79.92,11,103.93,103.93,0,0,0,34.29,59,516.57,516.57,0,0,0,5.53,133.17a26.09,26.09,0,0,0-1,5,5.14,5.14,0,0,0,3.17,5.07l.1.05a5,5,0,0,0,5.88-1.22,17,17,0,0,0,2.57-4.37l.27-.69q6.71-17.16,13.4-34.36l2.7-6.19L36,102.65q3.86,7.2,7.68,14.43c3.55,6.68,7.22,13.59,10.88,20.37a21.28,21.28,0,0,0,3.31,4.68l.3.27a5.4,5.4,0,0,0,7.58-.75,6.42,6.42,0,0,0,.6-7.19l-.11-.23L46.68,88.86l2.87-.48,1.77-.28a60.06,60.06,0,0,0,6.48-1.26l.17,0,4-.76c5-.94,10.12-1.91,15.1-3.1l.26,0a6.54,6.54,0,0,0,5.17-9.2l-.11-.28a24.91,24.91,0,0,0-2.46-5.56c-2-3.37-4.11-6.77-6.13-10s-4.13-6.69-6.15-10.07a38.82,38.82,0,0,1-3.1-6.55,10.52,10.52,0,0,1,2.81-11.56,25.83,25.83,0,0,1,3.41-2.86A135.45,135.45,0,0,1,96.3,14.1a17.25,17.25,0,0,0,4-2.27,4,4,0,0,0,1.53-4.46l-.07-.3a2.92,2.92,0,0,0-2.56-2.43A16.4,16.4,0,0,0,92.79,5.27ZM50.56,78.38,63.83,61.72l10,14.55Zm13-9-2.79,3.51,4.89-.45Z"/><path class="cls-1" d="M84.77,53.87A14.19,14.19,0,0,1,70.59,39.69v-.23a14.34,14.34,0,0,1,14.27-14h0A14.4,14.4,0,0,1,99,39.65,14.17,14.17,0,0,1,84.78,53.87ZM75.15,39.52v.16a9.63,9.63,0,0,0,9.62,9.63h0a9.64,9.64,0,0,0,9.62-9.63,9.63,9.63,0,0,0-19.25-.16Z"/></g></g></g></svg>