<?xml version="1.0" encoding="utf-8"?>
<!-- Generator: Adobe Illustrator 24.3.0, SVG Export Plug-In . SVG Version: 6.00 Build 0)  -->
<svg version="1.1" id="Calque_1" xmlns="http://www.w3.org/2000/svg" xmlns:xlink="http://www.w3.org/1999/xlink" x="0px" y="0px"
	 viewBox="0 0 20 20" style="enable-background:new 0 0 20 20;" xml:space="preserve">
<style type="text/css">
	.st0{fill:#3B444B;}
</style>
<g>
	<g>
		<circle class="st0" cx="10" cy="10" r="2"/>
		<path class="st0" d="M13.4,4.7H6.6c-1.1,0-2,0.9-2,2v6.8c0,1.1,0.9,2,2,2h6.8c1.1,0,2-0.9,2-2V6.6C15.3,5.5,14.5,4.7,13.4,4.7z
			 M10,13.5c-1.9,0-3.5-1.6-3.5-3.5S8.1,6.5,10,6.5s3.5,1.6,3.5,3.5S11.9,13.5,10,13.5z M13.6,7.2c-0.5,0-0.8-0.4-0.8-0.8
			c0-0.5,0.4-0.8,0.8-0.8c0.5,0,0.8,0.4,0.8,0.8C14.5,6.8,14.1,7.2,13.6,7.2z"/>
		<path class="st0" d="M10,0C4.5,0,0,4.5,0,10s4.5,10,10,10s10-4.5,10-10S15.5,0,10,0z M16.8,13.4c0,1.9-1.5,3.4-3.4,3.4H6.6
			c-1.9,0-3.4-1.5-3.4-3.4V6.6c0-1.9,1.5-3.4,3.4-3.4h6.8c1.9,0,3.4,1.5,3.4,3.4V13.4z"/>
	</g>
</g>
</svg>
