<svg xmlns="http://www.w3.org/2000/svg" viewBox="0 0 96.38 56.66"><defs><style>.cls-1{fill:#3c454b;}</style></defs><title>Hydro-massage</title><g id="Calque_2" data-name="Calque 2"><g id="Calque_1-2" data-name="Calque 1"><path class="cls-1" d="M0,56.66v-6.3c.56,0,1.11-.07,1.67-.13A13.3,13.3,0,0,0,8,47.83a20.24,20.24,0,0,1,5.41-3.06,17.06,17.06,0,0,1,15.66,2,18.74,18.74,0,0,0,5.77,3,13.8,13.8,0,0,0,11.81-2,20.68,20.68,0,0,1,7.2-3.57A17,17,0,0,1,67.77,46.8a18.28,18.28,0,0,0,5.69,3,13.76,13.76,0,0,0,11.71-2,22,22,0,0,1,6.64-3.42,17.06,17.06,0,0,1,4.57-.59V50l-.6,0a10.09,10.09,0,0,0-5.66,2,21.74,21.74,0,0,1-8,3.91,20.47,20.47,0,0,1-16.06-2.64,36.51,36.51,0,0,0-3.42-2.18,10.68,10.68,0,0,0-11.14,1,25.59,25.59,0,0,1-5.94,3.3,20,20,0,0,1-15.5-.69A29.9,29.9,0,0,1,25.57,52a11.14,11.14,0,0,0-12.45,0,24.76,24.76,0,0,1-6.21,3.47A22.25,22.25,0,0,1,0,56.66Z"/><path class="cls-1" d="M0,34.83V28.52l.57,0A13.35,13.35,0,0,0,8.08,26a20.67,20.67,0,0,1,6.43-3.35,17,17,0,0,1,10.61.33,20.41,20.41,0,0,1,5.21,2.88A14.11,14.11,0,0,0,46.65,26a22.68,22.68,0,0,1,5.27-3A17,17,0,0,1,67.64,24.9a20.92,20.92,0,0,0,4.66,2.67A13.94,13.94,0,0,0,85.4,25.8a21.07,21.07,0,0,1,6.41-3.29,17.41,17.41,0,0,1,4.57-.59v6.26c-.73.1-1.47.16-2.19.29a9.79,9.79,0,0,0-4,1.72,24.07,24.07,0,0,1-6,3.33,20.45,20.45,0,0,1-14,0A19.54,19.54,0,0,1,65,30.74a11.63,11.63,0,0,0-5.57-2.38,10.71,10.71,0,0,0-7.91,2,23.69,23.69,0,0,1-6,3.28,20.4,20.4,0,0,1-13.85,0,24.19,24.19,0,0,1-6.09-3.37,10.92,10.92,0,0,0-12.65,0,23.06,23.06,0,0,1-7.75,3.88A22.65,22.65,0,0,1,0,34.83Z"/><path class="cls-1" d="M0,13V6.76c.86-.1,1.7-.16,2.53-.29A13.1,13.1,0,0,0,8.1,4.15a20.59,20.59,0,0,1,5.13-2.93A17.07,17.07,0,0,1,29,3.1a24,24,0,0,0,4.46,2.62,13.77,13.77,0,0,0,11.19-.38,21.84,21.84,0,0,0,3.06-1.88A17.24,17.24,0,0,1,59.17.17a16.41,16.41,0,0,1,8.62,3A16.59,16.59,0,0,0,74,6.27,13.93,13.93,0,0,0,85.42,4a18.64,18.64,0,0,1,7-3.41C93.69.31,95,.19,96.37,0V6.35c-.75.1-1.5.16-2.24.31a9.52,9.52,0,0,0-4,1.74,21.41,21.41,0,0,1-8.22,4A20.18,20.18,0,0,1,65.31,9.14a13.83,13.83,0,0,0-4.94-2.43,10.82,10.82,0,0,0-9,1.91,21.67,21.67,0,0,1-7.75,3.77A20.19,20.19,0,0,1,26.38,8.94a12.13,12.13,0,0,0-5.79-2.41,10.55,10.55,0,0,0-7.65,2,22.32,22.32,0,0,1-8,3.93A19.14,19.14,0,0,1,0,13Z"/></g></g></svg>