<svg xmlns="http://www.w3.org/2000/svg" viewBox="0 0 82.68 84.1"><defs><style>.cls-1,.cls-2{fill:#3b444b;}.cls-1{stroke:#3b444b;stroke-miterlimit:10;stroke-width:2px;}</style></defs><title>Accès National</title><g id="Calque_2" data-name="Calque 2"><g id="Calque_1-2" data-name="Calque 1"><path class="cls-1" d="M1.83,26.87a2.43,2.43,0,0,1-.63-2.81,1.21,1.21,0,0,0,.05-.34,1.59,1.59,0,0,1,1-1.46c.67-.27,1.37-.49,2.06-.73a.89.89,0,0,1,.36-.07,6.57,6.57,0,0,0,2.11-.39,2.09,2.09,0,0,1,1.33,0,.9.9,0,0,0,.76-.23,1.68,1.68,0,0,1,1.32-.66l2.42-.08a1.65,1.65,0,0,1,1.4.66c.27.33.54.65.8,1l.8,1c.18-.09.36-.16.54-.26a1.86,1.86,0,0,1,1.39-.15c.09,0,.23,0,.29,0a2.67,2.67,0,0,1,2.1-.57h.1a1,1,0,0,0,.08-.79,4.12,4.12,0,0,1-.09-1.31,1.26,1.26,0,0,0-.42-1,4.7,4.7,0,0,1-.56-.92c-.06-.09-.1-.2-.16-.29A1.71,1.71,0,0,1,18.58,16a.42.42,0,0,0-.09-.32,1.67,1.67,0,0,1,.7-2.73l.53-.22a1.82,1.82,0,0,1,1.74.06,1.29,1.29,0,0,0,.91.13,11.35,11.35,0,0,1,1.75,0,.37.37,0,0,1,.14,0,2.56,2.56,0,0,1,1.52,2.79,1.43,1.43,0,0,0-.05.2c.51.1,1,.24,1.5.3a8.06,8.06,0,0,1,2.76.61,6.5,6.5,0,0,1,.84-2.28,2,2,0,0,1,.66-.77,18.47,18.47,0,0,1,2.06-1.32A6.41,6.41,0,0,1,35,12.06c.71-.18,1.44-.31,2.15-.5.23-.06.42-.28.65-.35.52-.15.63-.58.76-1a1,1,0,0,1,.14-.31A1.36,1.36,0,0,0,38.94,9c0-1.33.1-2.67.14-4a1.81,1.81,0,0,1,.58-1.3c.36-.34.67-.72,1.05-1a2.59,2.59,0,0,1,.89-.49c1.15-.32,2.31-.6,3.47-.89A3,3,0,0,1,46.48,1a1.67,1.67,0,0,1,.91.52,7.79,7.79,0,0,1,.81,1,7,7,0,0,1,.48,1.11c.32,0,.71-.07,1.11-.08a1.54,1.54,0,0,1,1.48.86c.26.46.47.94.71,1.41.05.09.14.2.23.21a1.74,1.74,0,0,1,1.41,1,.64.64,0,0,0,.82.43,2,2,0,0,1,1.21.16l1,.37A1.65,1.65,0,0,1,57.77,10a1.18,1.18,0,0,1,0,.16l.76-.63a1.68,1.68,0,0,1,2-.2l.55.32A1.66,1.66,0,0,1,61.6,12c-.12.2-.25.4-.35.58l2,1.45a1.44,1.44,0,0,1,.41.36c.17.29.36.26.62.15a1.77,1.77,0,0,1,1.6,0,8,8,0,0,1,.76.55c.58-.46,1.28-.26,2-.19.43,0,.85.1,1.28.16a1.61,1.61,0,0,1,1.25.87.75.75,0,0,1,.1.2c.16.44.35.75.94.69a1.45,1.45,0,0,1,1.24.74c.29.39.29.38.75.21.29-.1.58-.21.87-.3a1.6,1.6,0,0,1,1.62.3,2.41,2.41,0,0,1,.24.21,1.64,1.64,0,0,0,1.43.55,6.08,6.08,0,0,1,2.47.61,1.56,1.56,0,0,1,.85,2,12.8,12.8,0,0,1-.81,1.81,7.11,7.11,0,0,1-.79.95,1.43,1.43,0,0,0-.27.46c-.45,1.39-.9,2.79-1.34,4.19a.28.28,0,0,0,0,.2,3.86,3.86,0,0,1,.1,2.23,11.66,11.66,0,0,0,0,2.64,2.16,2.16,0,0,1-.86,1.93,2.09,2.09,0,0,0-.22.2,2,2,0,0,1-1.79.77,15.83,15.83,0,0,1-2.09,3,8,8,0,0,1-1.12.94.55.55,0,0,0-.21.29,2.64,2.64,0,0,1-.8,1.68l1.53.21a1.64,1.64,0,0,1,1.46,1.51c.06.44.06.9.12,1.34a1.16,1.16,0,0,0,.21.54c.35.51.73,1,1.08,1.49a1.66,1.66,0,0,1-.32,2.36l-.11.09a1.87,1.87,0,0,1,.54,1.17c0,.07.09.14.16.19l.48.37a1.61,1.61,0,0,1,.66,1.59c-.08.54-.16,1.08-.25,1.62a1.77,1.77,0,0,1-.8,1.15c-.32.21-.6.48-.94.75l.29.16a1.51,1.51,0,0,1,.77.86,12.24,12.24,0,0,1,.35,1.45,1.66,1.66,0,0,1-.47,1.37,1.37,1.37,0,0,0-.3,1.08.28.28,0,0,0,.22.25,7.83,7.83,0,0,1,.73.33l.83.37a.41.41,0,0,0,.24,0c.27-.11.53-.23.8-.33a1.66,1.66,0,0,1,1.91.47c.26.31.52.64.76,1a1.55,1.55,0,0,1,.1,1.69c-.3.56-.65,1.11-1,1.67a.81.81,0,0,0-.09.37,1.76,1.76,0,0,1-1.1,1.76l-.18.09a4,4,0,0,0-2.3,2,3.86,3.86,0,0,1-1.22,1.29.45.45,0,0,0-.2.41,4.1,4.1,0,0,1,0,.86,1.64,1.64,0,0,1-1.77,1.35,2.15,2.15,0,0,0-.71.11,6.67,6.67,0,0,0-2.1,1,1.46,1.46,0,0,1-1.8-.13.48.48,0,0,0-.44-.12,1.7,1.7,0,0,1-1.84-.66.47.47,0,0,0-.25-.16c-.47-.15-.93-.3-1.4-.43a2.17,2.17,0,0,1-1.14-.69.76.76,0,0,0-.63-.28c-.4,0-.79-.09-1.2-.13a1.13,1.13,0,0,0-.25,0c-.75,0-1.49,0-2.24,0a1.51,1.51,0,0,1-.71-.34.56.56,0,0,0-.49-.14,1.66,1.66,0,0,1-1.09-.17l-1.11-.55-2.46,1.64a1.84,1.84,0,0,1-1.13.36.77.77,0,0,0-.27.11s-.06.08-.1.11c-.39.34-.65.7-.4,1.26a.77.77,0,0,1,0,.54,4.21,4.21,0,0,0-.11,1.58A1.11,1.11,0,0,0,52,79a2.09,2.09,0,0,1,.75,1.23,1.66,1.66,0,0,1-1,1.77,2.2,2.2,0,0,1-1.89.15.37.37,0,0,0-.26,0l-.9.57a1.81,1.81,0,0,1-1.29.25,5.29,5.29,0,0,0-1,0A1.82,1.82,0,0,1,45,82.55a.28.28,0,0,0-.24,0c-.33.1-.64.21-1,.32a1.64,1.64,0,0,1-1.69-.35l-.22-.22a3.21,3.21,0,0,0-1-.82c-.27-.12-.44-.44-.67-.65a.76.76,0,0,0-.35-.19c-.23,0-.48,0-.72,0a1.7,1.7,0,0,1-1.51-.89c-.12-.18-.36-.28-.52-.45s-.4-.13-.63-.11a8,8,0,0,1-.85,0,.62.62,0,0,0-.31.06,1.79,1.79,0,0,1-1,.35l-2.47.08a1.92,1.92,0,0,1-1.07-.29.55.55,0,0,0-.34,0,6.82,6.82,0,0,1-1.17.2,1.64,1.64,0,0,1-1.31-.92c-.13-.23-.26-.29-.5-.16a3.86,3.86,0,0,1-.64.25,1.57,1.57,0,0,1-1.67-.31c-.42-.38-.8-.8-1.21-1.19a1.29,1.29,0,0,0-.38-.28c-.92-.38-1.85-.7-2.75-1.12A3.37,3.37,0,0,1,19,74a.36.36,0,0,0-.21-.19,2.93,2.93,0,0,1-2-1.52,1.65,1.65,0,0,1,.87-2.45,2.42,2.42,0,0,1,.36-.1.61.61,0,0,0,.46-.38c.26-.57.58-1.11.8-1.69a9.92,9.92,0,0,0,.34-1.43c.37-1.79.72-3.59,1.11-5.38a.78.78,0,0,0-.09-.65,1.61,1.61,0,0,1-.13-1.29q.63-2.64,1.23-5.29a10.94,10.94,0,0,0,.18-1.4.53.53,0,0,0-.11-.3,3.89,3.89,0,0,1-.61-2A1.68,1.68,0,0,1,22,48.56c.39-.32.43-.34.16-.88-.17-.33-.26-.7-.4-1a.44.44,0,0,0-.19-.23,2.82,2.82,0,0,1-1.4-1,.68.68,0,0,0-.23-.18c-.29-.18-.58-.37-.89-.53a1.85,1.85,0,0,1-1-1.46,1.71,1.71,0,0,0-.28-.67c-.28-.42-.59-.83-.91-1.22a1.77,1.77,0,0,1-.29-1.89.35.35,0,0,0-.19-.52,1.62,1.62,0,0,1-.76-1,.39.39,0,0,0-.21-.23,1.7,1.7,0,0,1-.9-.81c-.23-.41-.45-.82-.67-1.23a.66.66,0,0,0-.14-.15s-.06,0-.07,0c-.62-.62-1.55-.53-2.22-1-.27-.2-.52-.42-.78-.63a1.37,1.37,0,0,0-.2-.13l-1-.55A1.86,1.86,0,0,0,9,32.88c-.36-.09-.73-.1-1.08-.21A4.79,4.79,0,0,1,7,32.26c-.13-.07-.21-.13-.37-.06a2.13,2.13,0,0,1-.7.14,9.26,9.26,0,0,1-1.49-.12,1.54,1.54,0,0,1-1.3-1.39.67.67,0,0,0-.44-.61,3.88,3.88,0,0,1-1.28-1A1.62,1.62,0,0,1,1.83,26.87ZM56.67,70.55c.13.2.2.45.36.54a2,2,0,0,0,2.08.34l.09,0,.76.08-.05.59h1.46L61.3,70.7l2.58.25a3.4,3.4,0,0,0-1.28,1.16c.52,0,1,0,1.52,0s.43-.08.59.32a1.25,1.25,0,0,0,.88.82c.51.13,1,.33,1.52.46a1.17,1.17,0,0,1,.81.57.32.32,0,0,0,.26.13,1.44,1.44,0,0,1,1.74.47l.25-.17a3.62,3.62,0,0,1,1.14-.7,1.79,1.79,0,0,0,1.19-.51s.14,0,.21,0l1,0c0-.45,0-.89,0-1.33a.52.52,0,0,1,.17-.38A7.64,7.64,0,0,0,76,69.42a4.81,4.81,0,0,1,.37-.55,1,1,0,0,1,.29-.25c.53-.28,1.06-.56,1.6-.8a.56.56,0,0,0,.4-.65,1,1,0,0,1,.12-.74c.36-.54.69-1.1,1-1.66a.28.28,0,0,0,0-.25c-.18-.25-.38-.48-.58-.72l-1.37.57c-.07,0-.17.09-.24.06a7.85,7.85,0,0,1-1.38-.52,1.89,1.89,0,0,0-1.2-.36c-.08,0-.22,0-.25-.08a4.23,4.23,0,0,1-.63-1.34,4.49,4.49,0,0,1,0-1.51,1.21,1.21,0,0,1,.25-.59,1.18,1.18,0,0,0,.25-1.45.56.56,0,0,0-.23-.25c-.4-.16-.81-.3-1.22-.43a.47.47,0,0,1-.34-.34,2.84,2.84,0,0,0-.29-.61c-.13-.2-.29-.38-.43-.58s-.08-.17,0-.22c.13-.26.29-.51.44-.75.36.09.69.15,1,.26a.46.46,0,0,0,.54-.16c.31-.33.54-.76,1-.91,0,0,.1-.13.11-.2.07-.38.11-.76.19-1.14a.36.36,0,0,0-.19-.44,9.13,9.13,0,0,1-.86-.64.56.56,0,0,1-.17-.29c0-.16,0-.33-.06-.49A.69.69,0,0,0,74,51c-.33-.27-.7-.5-1-.76-.06,0-.14-.14-.13-.19.06-.24.08-.5.34-.66.43-.29.85-.61,1.31-.94-.49-.63-1-1.24-1.42-1.85a1.11,1.11,0,0,1-.2-.52c-.06-.55-.09-1.11-.14-1.66,0-.08-.07-.2-.13-.21a2.06,2.06,0,0,0-1.32,0,9,9,0,0,1-1.29.49.3.3,0,0,0-.24.4c0,.16.09.39,0,.49-.34.47-.73.91-1.11,1.38L68,46.17a1.65,1.65,0,0,1,.31-.18c.22-.09.28-.22.22-.47a3.45,3.45,0,0,1,.07-2.13,3.57,3.57,0,0,1,1-1.59,2.87,2.87,0,0,0,1-1.92.76.76,0,0,1,.29-.46,8.61,8.61,0,0,0,2.4-2.52,2.1,2.1,0,0,1,.22-.3c.36-.32.3-.68.1-1.1h-.86l1.48-1.31c.1.08.19.13.26.2a1.29,1.29,0,0,0,1.15.38,2.82,2.82,0,0,0,1.08-.91.28.28,0,0,0,0-.09c0-.37,0-.75,0-1.12a10.47,10.47,0,0,1,0-1.12,5.42,5.42,0,0,0-.09-2.88.36.36,0,0,1,0-.25c.45-1.45.92-2.89,1.36-4.34a3.39,3.39,0,0,1,1-1.64,5.79,5.79,0,0,0,1-1.84,6.6,6.6,0,0,0-2.89-.51.75.75,0,0,1-.57-.21c-.26-.26-.55-.48-.82-.73a.37.37,0,0,0-.43-.09c-.35.15-.73.25-1.08.41a1.75,1.75,0,0,1-1.17.11.58.58,0,0,1-.3-.18c-.27-.32-.53-.65-.8-1l-1.08.74c-.37-.74-.73-1.44-1.07-2.15-.12-.24-.24-.4-.55-.39a3.83,3.83,0,0,1-.68-.08c-.59-.09-1.18-.22-1.66.3a.25.25,0,0,1-.21,0,2.23,2.23,0,0,1-1.4-.71.28.28,0,0,0-.39-.09c-.45.17-.91.3-1.36.48-.25.1-.4.08-.53-.17a5.54,5.54,0,0,0-2.34-2.11,2,2,0,0,1-1.13-1.41,1.11,1.11,0,0,1-.07-.22,1,1,0,0,1,0-.42c.22-.38.46-.75.7-1.14l-.58-.33-1,.83.38.55c-.38.24-.74.48-1.11.7a.34.34,0,0,1-.26,0,5.49,5.49,0,0,1-1.28-.42,3,3,0,0,1-.65-.79c.11-.66-.1-1.38.44-2a3.52,3.52,0,0,0-2.08-.44,2.48,2.48,0,0,1-.46,0,1.06,1.06,0,0,1-1.1-.73.94.94,0,0,0-1.28-.66c-.22.06-.29-.06-.37-.24-.31-.71-.63-1.4-.94-2.1a.31.31,0,0,0-.35-.21,1.14,1.14,0,0,0-1.09.55c0,.07-.09.14-.14.21-.37-.27-.67-.53-1-.74A.73.73,0,0,1,47,4.51a1.89,1.89,0,0,0-.62-1.64.38.38,0,0,0-.44-.14,25,25,0,0,1-3,.82A3,3,0,0,0,41,4.71a.2.2,0,0,0-.08.08.91.91,0,0,0-.13.33c-.06,1.29-.1,2.59-.14,3.88a1.45,1.45,0,0,0,.08.47c.17.44.36.86.56,1.34l-.88-.13a.2.2,0,0,0-.27.16c-.14.42-.28.84-.43,1.25,0,.09-.1.22-.17.24a3.33,3.33,0,0,0-1.4.71.36.36,0,0,1-.19.06l-2.52.58a4.28,4.28,0,0,0-1.12.34c-.61.32-1.17.72-1.75,1.1a.59.59,0,0,0-.22.25c-.19.39-.36.78-.53,1.18a.27.27,0,0,0,0,.19,1.54,1.54,0,0,0,.74.49h1.31l0,.07c-.1.07-.19.19-.3.2a8.58,8.58,0,0,0-2.73,1,1,1,0,0,1-.9.05,8.85,8.85,0,0,0-2.49-.63,15.41,15.41,0,0,1-1.78-.31c-.23,0-.45-.1-.67-.16-.08.16-.16.29-.23.43s-.14.26-.22.38a3.16,3.16,0,0,1-.09-.66c0-.33,0-.68-.26-.94a.8.8,0,0,1-.07-1.27c.16-.18-.15-.83-.39-.84-.48,0-1-.13-1.41.28a.41.41,0,0,1-.36,0l-1.17-.54a.46.46,0,0,0-.27-.07c-.24.08-.48.19-.76.3.29.24.53.46.79.66s.21.22.09.4-.15.33-.25.48a.38.38,0,0,0,.07.55.7.7,0,0,1,.21.36,1.08,1.08,0,0,0,.41.72,4.91,4.91,0,0,1,.51.51.67.67,0,0,1,.15.38c0,.54,0,1.09,0,1.64a.41.41,0,0,0,.13.28c.35.29.36.29.21.71a2.48,2.48,0,0,1-.13.35,1.34,1.34,0,0,0,0,1.23,2.06,2.06,0,0,0,.64,1,3.89,3.89,0,0,1,.44.4c-.82,0-1.57,0-2.33,0-.52,0-.61-.05-.63-.58,0,0,0-.09,0-.12a1.51,1.51,0,0,0-1.31.3,1.15,1.15,0,0,1-1.36.25.64.64,0,0,0-.6.05c-.42.22-.86.4-1.27.62a.48.48,0,0,1-.66-.06c-.15-.15-.35-.24-.5-.39a1.13,1.13,0,0,1-.19-.38c-.05-.15,0-.35-.12-.47-.38-.5-.78-1-1.18-1.46a.45.45,0,0,0-.31-.14c-.68,0-1.36,0-2,.05a.33.33,0,0,0-.36.25c-.07.28-.16.56-.25.84l-.34-.07c-.76-.18-.76-.18-1.16.46a2.31,2.31,0,0,0-.24-.29,1.06,1.06,0,0,0-1.05-.34,5.8,5.8,0,0,1-2.22.42.84.84,0,0,0-.2.05c-.52.18-1,.36-1.57.56a.37.37,0,0,0-.19.25,1.43,1.43,0,0,1-.2.82.46.46,0,0,0,.37.68,7.18,7.18,0,0,0,2.21-.29c.2-.05.2-.08.32.1l-1,.49L6,26.22c-.45,0-1,0-1.46,0a.61.61,0,0,0-.62.33c-.15.24,0,.35.11.51a1,1,0,0,0,.14.22c.27-.09.54-.18.8-.25.07,0,.2,0,.23,0,.22.28.5.55.33,1C5,28,4.41,28,3.85,27.89a1.5,1.5,0,0,0-1.16.45c.35.17.64.33.94.46a3,3,0,0,0,.61.16.34.34,0,0,1,.31.31c.07.44.15.88.22,1.34.31,0,.61,0,.92.07s.25-.05.3-.21.16-.39.26-.64a11,11,0,0,1,1.34.8,2.34,2.34,0,0,0,1.12.51c.65.1,1.36.09,1.82.7A.41.41,0,0,0,11,32l1.13-.19c-.05.32-.1.6-.13.89,0,.06,0,.19,0,.2.35.15.64.46,1.08.36s.68-.08,1-.12l.18.83a6.75,6.75,0,0,0,1,0c.6-.1.91.31,1.3.67l-1.23.51.37.63c.08.12.14.31.26.36a2,2,0,0,0,1.23.28c.27-.06.55-.07.88-.11a4.64,4.64,0,0,1-.32.83c-.12.18-.36.27-.56.42A7.9,7.9,0,0,1,18,38a2.25,2.25,0,0,1,.51.64c.06.12-.06.32-.11.49s-.16.53-.26.79a.4.4,0,0,0,.06.44c.41.52.81,1.05,1.19,1.59a1,1,0,0,1,.2.49,1.13,1.13,0,0,0,.72,1.08,3.09,3.09,0,0,1,1,.66,2.36,2.36,0,0,0,1,.72c.22.07.44.18.66.27l1,.4a.94.94,0,0,1-.08.15,1,1,0,0,0-.07,1.55,1,1,0,0,1,.17.45,3.1,3.1,0,0,1,0,1.22c-.12.33-.52.55-.8.81L23,49.9s-.09.09-.08.11c.12.31.08.7.39.93.53.39,1,.82,1.61,1.16a2,2,0,0,1,.94,1.46,7.22,7.22,0,0,0,1.06,3.25.24.24,0,0,1,.05.16l-.15,1.22c-.15-.29-.25-.6-.37-.9a3.21,3.21,0,0,0-.35-.78,1.89,1.89,0,0,1-.4-.83,6.93,6.93,0,0,0-.17-.79,4.51,4.51,0,0,0-.33-1.3,4.82,4.82,0,0,0-1-.9l-.36-.29a.81.81,0,0,0-.18-.12c-.28,2.43-1,4.73-1.49,7.11l1.09.43c-.23.36-.45.7-.65,1a2.24,2.24,0,0,0-.27.59c-.36,1.72-.7,3.44-1.06,5.16a10.4,10.4,0,0,1-.38,1.58c-.24.64-.58,1.23-.88,1.85a2,2,0,0,1-1.51,1.25l-.24.08a1.7,1.7,0,0,0,1.05.8,12.15,12.15,0,0,1,1.41.36c0,.22,0,.41,0,.6s-.07.34,0,.42a3,3,0,0,0,.81.71c.76.35,1.56.65,2.35.94a2.07,2.07,0,0,0,.74.1.27.27,0,0,1,.32.19,2.57,2.57,0,0,0,.36.65c.24.29.54.54.8.82a.27.27,0,0,0,.35.07,5,5,0,0,1,.88-.35,3.77,3.77,0,0,1,1.11-.06c.15,0,.29.26.42.41a5.91,5.91,0,0,1,.49.63.25.25,0,0,0,.38.11,2.74,2.74,0,0,1,.73-.25,4,4,0,0,1,1,.07c.1,0,.17.18.26.26a.31.31,0,0,0,.17.07l2.44-.06c0-.21-.08-.38-.12-.56s-.08-.34-.11-.51a2.19,2.19,0,0,1,1.6.37,1,1,0,0,0,1.17.21.58.58,0,0,0,.14,0,.53.53,0,0,1,.57.12,3,3,0,0,0,.78.52.77.77,0,0,1,.57.49c0,.09.1.17.12.26s.18.22.36.21c.47,0,.94,0,1.41,0a.36.36,0,0,1,.39.21,7.6,7.6,0,0,0,.43.72c.11.17.85.53,1,.44.35-.2.47,0,.56.3l-.27.23c.33.44.33.44.82.27a5.82,5.82,0,0,0,.83-.29,1.12,1.12,0,0,1,1.26.08c.12.09.27.15.38.25s.13.23.22.27a.6.6,0,0,0,.42,0,1.13,1.13,0,0,1,.81,0A.72.72,0,0,0,48,81.3a7.39,7.39,0,0,0,1-.67,1,1,0,0,1,1.24-.09.68.68,0,0,0,.82-.05c-.24-.26-.46-.53-.71-.76a1,1,0,0,1-.36-.86c0-.35,0-.7,0-1.06a.53.53,0,0,0-.32-.57c-.08,0-.19-.14-.19-.22a8.94,8.94,0,0,1,0-.9l.65.14c-.1-.43-.2-.82-.27-1.21a.44.44,0,0,1,.09-.33c.49-.55,1-1.08,1.49-1.64a.7.7,0,0,1,.71-.27,1,1,0,0,0,.65-.08c.88-.58,1.76-1.17,2.58-1.83A1.56,1.56,0,0,1,56.67,70.55Z"/><path class="cls-2" d="M65.32,32.83,43.45,54.7a2.4,2.4,0,0,1-1.71.7A2.44,2.44,0,0,1,40,54.7l-7.15-7.16a2.42,2.42,0,0,1,3.42-3.42l5.44,5.45L61.9,29.41a2.42,2.42,0,1,1,3.42,3.42Z"/></g></g></svg>