<svg xmlns="http://www.w3.org/2000/svg" viewBox="0 0 117.07 49.86"><defs><style>.cls-1{fill:#3b444b;}</style></defs><title>Muculation</title><g id="Calque_2" data-name="Calque 2"><g id="Calque_1-2" data-name="Calque 1"><path class="cls-1" d="M87.13,49.86a3.45,3.45,0,0,1-3.46-3.48l.07-10.93H33.23l-.06,10.6a3.45,3.45,0,0,1-3.45,3.44l-13.15,0a3.41,3.41,0,0,1-2.46-1,3.5,3.5,0,0,1-1-2.46l0-6.34-9.67,0h0A3.47,3.47,0,0,1,0,36.26L.13,13.33A3.45,3.45,0,0,1,3.58,9.89l9.72,0,0-6.39A3.46,3.46,0,0,1,16.78,0L29.94,0h0a3.47,3.47,0,0,1,2.45,1,3.4,3.4,0,0,1,1,2.46l-.07,12.79H83.84l.07-12.46A3.46,3.46,0,0,1,87.36.37l13.15,0A3.47,3.47,0,0,1,104,3.82l0,6.34,9.66,0h0a3.47,3.47,0,0,1,3.46,3.48l-.13,22.93A3.46,3.46,0,0,1,113.49,40l-9.72,0,0,6.39a3.45,3.45,0,0,1-3.45,3.44l-13.15,0ZM29.71,46h0ZM90.81,7.28l-.2,35.66,6.23,0L97,7.27ZM20.14,25,20,42.6l6.23,0,.19-35.65H20.23l0,6.28v.12Zm83.77-7.87-.09,16,6.22,0,.09-16ZM7,16.8l-.09,16,6.23,0,.09-16ZM33.26,28.53H83.77l0-5.34H33.29Z"/></g></g></svg>