<svg xmlns="http://www.w3.org/2000/svg" viewBox="0 0 178.44 178.44"><defs><style>.cls-1,.cls-3{fill:none;stroke:#3b444b;}.cls-1{stroke-linecap:round;stroke-width:4.39px;}.cls-2{fill:#3b444b;}.cls-3{stroke-miterlimit:10;stroke-width:1.37px;}</style></defs><title>Produits désinfectant</title><g id="Calque_2" data-name="Calque 2"><g id="Calque_1-2" data-name="Calque 1"><circle class="cls-1" cx="89.22" cy="89.22" r="87.03"/><path class="cls-2" d="M95,60.62c-.18-.45-.26-.7-.37-.95-1.22-2.6-2.45-5.2-3.64-7.82a1,1,0,0,0-1.09-.7c-2.37,0-2.48,0-3.34,2.24-.19.5-.35,1-.55,1.59l9,5.64m6.15-21.09H93v8.85h8.18ZM80.93,71.47c.18-2.41.36-4.82.55-7.32a8.15,8.15,0,0,0-.84-.07c-3.59,0-7.19,0-10.78-.08-.75,0-.94.22-1,1-.33,2.14-.78,4.27-1.2,6.52Zm9.21-31.92H59.8v8.91c1,0,1.91,0,2.85,0a2.27,2.27,0,0,1,2,1A20.47,20.47,0,0,1,69,61.24c.32,0,.6.06.88.07,3.66,0,7.32,0,11,.08.89,0,1.07-.34,1.26-1.11.71-2.88,1.52-5.75,2.3-8.61a5.56,5.56,0,0,1,.37-.78c.79-1.69,1.92-2.79,4-2.44a8.89,8.89,0,0,0,1.37,0ZM71.62,74.2c-1.48,0-3,0-4.43,0a1,1,0,0,0-.8.44q-4.59,10.2-9.12,20.44a85.76,85.76,0,0,0-6.05,18.21,46.3,46.3,0,0,0,4.27,30.65c.32.62.73.59,1.24.59H99.58c.47,0,.83,0,1-.57,2.5-6.76,4.31-13.64,3.84-20.93a25.82,25.82,0,0,0-5.72-14.75c-3-3.84-6.42-7.43-9.62-11.15-3.66-4.27-6.61-8.95-7.62-14.57a69.57,69.57,0,0,1-.59-7.66c0-.19,0-.37-.06-.7H71.62m13.6-16.13a90.56,90.56,0,0,0-1.64,18,32,32,0,0,0,.65,6.4C85.29,87.62,88,92,91.43,95.88c3,3.45,6.11,6.76,9,10.25a29,29,0,0,1,6.76,22.47,68,68,0,0,1-4.54,17.54,1.59,1.59,0,0,1-1.7,1.11c-3.94,0-7.89,0-11.84,0q-16.86,0-33.71,0a1.77,1.77,0,0,1-1.88-1.15c-.36-.86-.83-1.66-1.23-2.5A48,48,0,0,1,47.58,121a60.81,60.81,0,0,1,4.79-21C55.09,93.42,58.13,87,61,80.57c2.26-5,4.36-10.07,5-15.59a18.9,18.9,0,0,0-2.68-12.74,1.89,1.89,0,0,0-2-1.1,17.35,17.35,0,0,1-2.6,0c-1.31,0-1.71-.44-1.71-1.76q0-5.25,0-10.5c0-1.83.29-2.13,2.11-2.13H97c1.8,0,3.59,0,5.39,0,1.07,0,1.51.48,1.51,1.55,0,3.72,0,7.45,0,11.17,0,1.19-.41,1.63-1.61,1.65-1.67,0-3.34,0-5,0-1.15,0-2.3,0-3.59,0,.19.46.32.78.47,1.09q2.52,5.4,5,10.8c.35.74.73,1.51,0,2.19s-1.47.28-2.19-.18c-3.36-2.13-6.73-4.23-10.1-6.35l-1.53-1c-.07.2-.1.26-.12.32"/><path class="cls-3" d="M95,60.62c-.18-.45-.26-.7-.37-.95-1.22-2.6-2.45-5.2-3.64-7.82a1,1,0,0,0-1.09-.7c-2.37,0-2.48,0-3.34,2.24-.19.5-.35,1-.55,1.59Zm6.15-21.09H93v8.85h8.18ZM80.93,71.47c.18-2.41.36-4.82.55-7.32a8.15,8.15,0,0,0-.84-.07c-3.59,0-7.19,0-10.78-.08-.75,0-.94.22-1,1-.33,2.14-.78,4.27-1.2,6.52Zm9.21-31.92H59.8v8.91c1,0,1.91,0,2.85,0a2.27,2.27,0,0,1,2,1A20.47,20.47,0,0,1,69,61.24c.32,0,.6.06.88.07,3.66,0,7.32,0,11,.08.89,0,1.07-.34,1.26-1.11.71-2.88,1.52-5.75,2.3-8.61a5.56,5.56,0,0,1,.37-.78c.79-1.69,1.92-2.79,4-2.44a8.89,8.89,0,0,0,1.37,0ZM71.62,74.2c-1.48,0-3,0-4.43,0a1,1,0,0,0-.8.44q-4.59,10.2-9.12,20.44a85.76,85.76,0,0,0-6.05,18.21,46.3,46.3,0,0,0,4.27,30.65c.32.62.73.59,1.24.59H99.58c.47,0,.83,0,1-.57,2.5-6.76,4.31-13.64,3.84-20.93a25.82,25.82,0,0,0-5.72-14.75c-3-3.84-6.42-7.43-9.62-11.15-3.66-4.27-6.61-8.95-7.62-14.57a69.57,69.57,0,0,1-.59-7.66c0-.19,0-.37-.06-.7Zm13.6-16.13a90.56,90.56,0,0,0-1.64,18,32,32,0,0,0,.65,6.4C85.29,87.62,88,92,91.43,95.88c3,3.45,6.11,6.76,9,10.25a29,29,0,0,1,6.76,22.47,68,68,0,0,1-4.54,17.54,1.59,1.59,0,0,1-1.7,1.11c-3.94,0-7.89,0-11.84,0q-16.86,0-33.71,0a1.77,1.77,0,0,1-1.88-1.15c-.36-.86-.83-1.66-1.23-2.5A48,48,0,0,1,47.58,121a60.81,60.81,0,0,1,4.79-21C55.09,93.42,58.13,87,61,80.57c2.26-5,4.36-10.07,5-15.59a18.9,18.9,0,0,0-2.68-12.74,1.89,1.89,0,0,0-2-1.1,17.35,17.35,0,0,1-2.6,0c-1.31,0-1.71-.44-1.71-1.76q0-5.25,0-10.5c0-1.83.29-2.13,2.11-2.13H97c1.8,0,3.59,0,5.39,0,1.07,0,1.51.48,1.51,1.55,0,3.72,0,7.45,0,11.17,0,1.19-.41,1.63-1.61,1.65-1.67,0-3.34,0-5,0-1.15,0-2.3,0-3.59,0,.19.46.32.78.47,1.09q2.52,5.4,5,10.8c.35.74.73,1.51,0,2.19s-1.47.28-2.19-.18c-3.36-2.13-6.73-4.23-10.1-6.35l-1.53-1C85.27,58,85.24,58,85.22,58.07Z"/><path class="cls-2" d="M115.54,44A2.53,2.53,0,1,1,113,41.43,2.52,2.52,0,0,1,115.54,44"/><path class="cls-2" d="M131,44a2.53,2.53,0,1,1-2.53-2.52A2.53,2.53,0,0,1,131,44"/><path class="cls-2" d="M123.28,38.4a2.52,2.52,0,1,1-2.52-2.53,2.52,2.52,0,0,1,2.52,2.53"/><path class="cls-2" d="M123.28,49.51A2.52,2.52,0,1,1,120.76,47a2.53,2.53,0,0,1,2.52,2.52"/><path class="cls-2" d="M131,32.84a2.53,2.53,0,1,1-2.53-2.53A2.52,2.52,0,0,1,131,32.84"/><path class="cls-2" d="M131,55.07a2.53,2.53,0,1,1-2.53-2.52A2.52,2.52,0,0,1,131,55.07"/></g></g></svg>