<svg xmlns="http://www.w3.org/2000/svg" viewBox="0 0 95.81 111.13"><defs><style>.cls-1{fill:#3b444b;}</style></defs><title>Programme perso</title><g id="Calque_2" data-name="Calque 2"><g id="Calque_1-2" data-name="Calque 1"><path class="cls-1" d="M93.7,99.89H26.43a2.12,2.12,0,0,1-2.11-2.11V2.11A2.12,2.12,0,0,1,26.43,0H93.7a2.12,2.12,0,0,1,2.11,2.11V97.78A2.12,2.12,0,0,1,93.7,99.89ZM28.54,95.67H91.59V4.22h-63Z"/><path class="cls-1" d="M16.26,111.13a2.12,2.12,0,0,1-2.09-1.8L0,14.73a2.11,2.11,0,0,1,1.78-2.4L26.12,8.71a2.11,2.11,0,1,1,.62,4.17L4.51,16.19,18,106.62,82.5,97a2.11,2.11,0,1,1,.62,4.17l-66.55,10A1.63,1.63,0,0,1,16.26,111.13Z"/><path class="cls-1" d="M84.23,17.87H36a2.11,2.11,0,1,1,0-4.22H84.23a2.11,2.11,0,0,1,0,4.22Z"/><path class="cls-1" d="M84.23,24.68H36a2.11,2.11,0,0,1,0-4.22H84.23a2.11,2.11,0,0,1,0,4.22Z"/><path class="cls-1" d="M84.23,31.45H36a2.11,2.11,0,0,1,0-4.22H84.23a2.11,2.11,0,0,1,0,4.22Z"/><path class="cls-1" d="M84.23,53.58H36a2.12,2.12,0,0,1-2.11-2.11V36A2.12,2.12,0,0,1,36,33.86H84.23A2.11,2.11,0,0,1,86.34,36v15.5A2.11,2.11,0,0,1,84.23,53.58ZM38.15,49.36h44V38.08h-44Z"/><path class="cls-1" d="M37.11,90.47A2,2,0,0,1,35.69,87L52,71a2,2,0,0,1,1.43-.58A2,2,0,0,1,54.9,71l3.37,3.44,8.45-8.3a2,2,0,0,1,2.85,0l3.27,3.31,8.73-8.58a2,2,0,0,1,2.84,2.88l-10.18,10a2,2,0,0,1-2.86,0l-3.26-3.32-8.45,8.3a2.17,2.17,0,0,1-1.44.58,2,2,0,0,1-1.42-.61l-3.37-3.44L38.52,89.89A2,2,0,0,1,37.11,90.47Z"/></g></g></svg>