<svg xmlns="http://www.w3.org/2000/svg" viewBox="0 0 86.01 82.63"><defs><style>.cls-1,.cls-2{fill:#3b444b;}.cls-2{stroke:#3b444b;stroke-miterlimit:10;stroke-width:3px;}</style></defs><title>Service de qualité</title><g id="Calque_2" data-name="Calque 2"><g id="Calque_1-2" data-name="Calque 1"><path class="cls-1" d="M79.52,24.72c0,1,0,1.9,0,2.85a5,5,0,0,0,1.12,3.32c1.07,1.34,2.15,2.69,3.14,4.1,3,4.26,3,8.43,0,12.69-.93,1.3-1.92,2.55-2.94,3.78a5.56,5.56,0,0,0-1.28,3.95c.08,1.87.14,3.74.1,5.61a9.86,9.86,0,0,1-1.52,5.1c-1.56,2.52-4,3.68-6.74,4.52-1.28.4-2.58.75-3.88,1.09A5.22,5.22,0,0,0,64.36,74a59.49,59.49,0,0,1-3.49,5c-2.82,3.44-6.48,4.38-10.69,3.14-1.67-.49-3.3-1.12-4.93-1.74a6.19,6.19,0,0,0-4.52,0c-1.87.67-3.75,1.34-5.68,1.83-4.49,1.15-8-.48-10.62-4.12-1-1.3-1.85-2.66-2.72-4a5.27,5.27,0,0,0-3.15-2.35c-1.82-.51-3.65-1-5.43-1.64-4.49-1.63-6.65-5-6.74-9.67,0-1.75.06-3.49.14-5.24a5.16,5.16,0,0,0-1.15-3.54C4.14,50,2.85,48.47,1.76,46.78a9.38,9.38,0,0,1-.2-10.65,45.14,45.14,0,0,1,3.5-4.76A6,6,0,0,0,6.54,27a48.85,48.85,0,0,1,0-6.05c.33-4.4,2.85-7.16,6.91-8.58,1.74-.61,3.52-1.1,5.29-1.62a4.61,4.61,0,0,0,2.7-1.88c1-1.43,1.9-2.87,2.91-4.26A10.29,10.29,0,0,1,30.57.2,12.69,12.69,0,0,1,37,.86c1.4.44,2.79.94,4.16,1.46a5.9,5.9,0,0,0,4.16-.1C47.37,1.53,49.43.76,51.56.27a8.68,8.68,0,0,1,9.06,3.07A40.61,40.61,0,0,1,64,8a6.64,6.64,0,0,0,4.22,3.07,38.29,38.29,0,0,1,5.67,1.84c3.7,1.61,5.51,4.61,5.74,8.58.07,1.07,0,2.15,0,3.22ZM14.55,57c0,1.1,0,2.2,0,3.29.06,1.53.28,1.83,1.74,2.3s3.11.92,4.66,1.38a12.34,12.34,0,0,1,6.89,4.74c.79,1.12,1.54,2.27,2.33,3.39.45.63.93,1.23,1.41,1.84a1.11,1.11,0,0,0,1.26.43,33,33,0,0,0,3.7-1.14,15.28,15.28,0,0,1,12.69-.09c1,.45,2.12.74,3.17,1.13a1.87,1.87,0,0,0,2.45-.78c.2-.29.43-.55.63-.84l2.26-3.35a12.37,12.37,0,0,1,7.07-5.22c1.55-.45,3.11-.9,4.64-1.41,1.88-.62,2.07-.88,2.06-2.84,0-1.57-.1-3.14-.14-4.72a12.59,12.59,0,0,1,2.86-8.46c1-1.25,2-2.49,2.92-3.79s.92-1.81,0-3.1c-.72-1-1.49-1.94-2.26-2.89-1.57-2-3-4-3.29-6.61-.19-1.75-.11-3.53-.14-5.3,0-1.05,0-2.1,0-3.14a1.57,1.57,0,0,0-1.24-1.58c-1.38-.42-2.75-.91-4.15-1.25A14.1,14.1,0,0,1,57,12.26c-.68-1.14-1.52-2.17-2.25-3.27a1.72,1.72,0,0,0-2.15-.69c-1.31.43-2.61.85-3.89,1.35a13.85,13.85,0,0,1-10.07.43C37.09,9.52,35.51,9,34,8.38a2.19,2.19,0,0,0-2.86.86l-2.28,3.33a13.2,13.2,0,0,1-5,4.87A36.23,36.23,0,0,1,19.73,19c-1.32.45-2.66.83-4,1.25a1.54,1.54,0,0,0-1.16,1.63c0,1.5,0,3,.08,4.49a13.84,13.84,0,0,1-3.52,10.48c-.91,1-1.69,2.22-2.53,3.34a1.73,1.73,0,0,0,0,2.21c.59.84,1.24,1.63,1.82,2.47a50.84,50.84,0,0,1,3.25,4.91C14.85,52,14.73,54.51,14.55,57Z"/><path class="cls-2" d="M59.23,32.09,37.36,54a2.41,2.41,0,0,1-3.42,0L26.78,46.8a2.42,2.42,0,0,1,3.42-3.42l5.45,5.45L55.81,28.67a2.42,2.42,0,0,1,3.42,3.42Z"/></g></g></svg>