<svg xmlns="http://www.w3.org/2000/svg" viewBox="0 0 75.19 109.43"><defs><style>.cls-1{fill:#3b444b;}</style></defs><title>Sismo</title><g id="Calque_2" data-name="Calque 2"><g id="Calque_1-2" data-name="Calque 1"><path class="cls-1" d="M75.12,101.6a19,19,0,0,0-.67-3.15c-.33-.88-.52-1.82-.85-2.71-.49-1.3-1-2.57-1.55-3.86a.82.82,0,0,1,0-.44,1.69,1.69,0,0,0-.53-1.69,31.85,31.85,0,0,0-4.29-3.07,1.92,1.92,0,0,1-.84-.73,1.26,1.26,0,0,0-.35-.34,5.18,5.18,0,0,0-1.9-.89,50.84,50.84,0,0,0-6.34-1.28.45.45,0,0,1-.42-.36c-2.48-7.15-5.1-14.25-8-21.24q-3.2-7.74-6.86-15.28c-2.93-6.05-6-12-9.44-17.81a6.44,6.44,0,0,1-.72-1.92A10.26,10.26,0,0,0,29,21.07a6.14,6.14,0,0,1-1.2-1.24,3.38,3.38,0,0,0-2.08-1.46.77.77,0,0,1-.49-.37,86.36,86.36,0,0,0-6-8,1.75,1.75,0,0,1-.33-.67c-.55-1.8-1-3.62-1.64-5.4A5.73,5.73,0,0,0,14.74.67a3.24,3.24,0,0,0-3-.48A3.42,3.42,0,0,0,9.59,2.45a6.66,6.66,0,0,0-.12.67c-.37,0-.74,0-1.09.08A5.89,5.89,0,0,0,4.65,5a11.2,11.2,0,0,0-2.18,3.9A26.72,26.72,0,0,0,1.16,15a.38.38,0,0,1-.12.27,1.65,1.65,0,0,0-.75,1.45C.18,19.18.06,21.63,0,24.08c0,1.42,0,2.84.09,4.26.08,2.2.14,4.4.29,6.6.17,2.68.41,5.36.66,8,.21,2.29.44,4.59.7,6.88.23,2,.46,3.94.78,5.9C3,58.6,3.5,61.42,4,64.25,4.91,69,6.1,73.74,7.38,78.43c1.12,4.1,2.39,8.17,3.76,12.2,1,2.89,2,5.77,2.9,8.67.41,1.27.69,2.58,1.05,3.86a10.45,10.45,0,0,0,.62,1.94,5.3,5.3,0,0,0,2.68,2.3A17.22,17.22,0,0,0,24,108.74c1.51.16,3,.28,4.53.38s3.13.21,4.69.22,3.14-.11,4.71-.14c.9,0,1.81,0,2.72,0l1.81,0c1.2,0,2.39,0,3.58.08.41,0,.82,0,1.23.07h5a1.36,1.36,0,0,1,.17,0c.71,0,1.42,0,2.13,0,1.37-.07,2.74-.14,4.11-.23.77-.06,1.55-.14,2.32-.26a34.06,34.06,0,0,0,6.58-1.64A22.58,22.58,0,0,0,72.26,105a21.29,21.29,0,0,0,2.08-1.6,2.35,2.35,0,0,0,.75-1.29.46.46,0,0,1,.1-.18v-.19A.83.83,0,0,1,75.12,101.6ZM27,86.13c-.31-.72-.63-1.43-.93-2.15C24.05,79.05,22,74.15,20,69.2s-3.83-10-5.45-15.14c-1.18-3.7-2.31-7.42-3.33-11.16-.95-3.5-1.73-7-2.59-10.56-.1-.44-.21-.89-.27-1.34a1.78,1.78,0,0,1,.08-.79A31.49,31.49,0,0,0,9.49,25.6c.09-.44.16-.89.29-1.33a2.43,2.43,0,0,1,1.27-1.59,24.36,24.36,0,0,1,2.44-1,.59.59,0,0,1,.44.08,25.23,25.23,0,0,1,4,3.38,22.17,22.17,0,0,1,3.24,4.75c1.29,2.3,2.54,4.63,3.72,7a110.86,110.86,0,0,1,5.66,13.72q2.28,6.6,4.5,13.23A111.67,111.67,0,0,1,38.2,74.76a23.76,23.76,0,0,1,.71,5.18,2.1,2.1,0,0,1-.64,1.56c-.66.64-1.31,1.29-2,1.91a1.92,1.92,0,0,1-.73.36c-1.58.43-3.18.82-4.76,1.26C29.54,85.37,28.31,85.75,27,86.13Zm38,3.93a6,6,0,0,1-2.12,1.13,36.59,36.59,0,0,1-7.53,1.53c-2.55.29-5.11.43-7.68.49h-5.5c-2.13-.09-4.27-.15-6.4-.26-1.4-.08-2.8-.21-4.21-.31a.37.37,0,0,1-.35-.26c-.39-.89-.79-1.77-1.19-2.66-.28-.62-.58-1.25-.87-1.87v-.06a67.32,67.32,0,0,1,8.59-2.34,36.28,36.28,0,0,1,8.18-.82c4,.12,7.89.28,11.81.78a29.86,29.86,0,0,1,5.13,1,5.69,5.69,0,0,1,2.11,1,2.2,2.2,0,0,1,.63.88A1.49,1.49,0,0,1,65,90.06Z"/></g></g></svg>