<svg xmlns="http://www.w3.org/2000/svg" viewBox="0 0 178.4 178.41"><defs><style>.cls-1{fill:#3b444b;}.cls-2{fill:none;stroke:#3b444b;stroke-linecap:round;stroke-width:4.39px;}</style></defs><title>Wifi gratuit</title><g id="Calque_2" data-name="Calque 2"><g id="Calque_1-2" data-name="Calque 1"><path class="cls-1" d="M86.1,121l-3.74,32.87H79l-1.32-15-.2-3.57-.21,3.57-1.31,15H72.58L68.84,121h4l1.47,14.79.25,3.54.2-3.54L76,121h2.88l1.27,14.79.21,3.54.24-3.54L82.11,121Z"/><path class="cls-1" d="M91.66,153.87h-4V121h4Z"/><path class="cls-1" d="M103.21,125.07H97.75v10.06h3.78v4H97.75v14.75h-4V121h9.49Z"/><path class="cls-1" d="M109,153.87h-4V121h4Z"/><path class="cls-2" d="M89.2,176.21a87,87,0,1,0-87-87A87,87,0,0,0,89.2,176.21Z"/><path class="cls-1" d="M144.68,59.18a5,5,0,0,1-3.31,4.58,5,5,0,0,1-5.68-1.57,61.07,61.07,0,0,0-8.1-8,60.62,60.62,0,0,0-84.88,8,5.09,5.09,0,0,1-7.81-6.52A70.86,70.86,0,0,1,56.7,38.27a70.72,70.72,0,0,1,63-1,68.94,68.94,0,0,1,18.19,12.51c2,1.9,3.8,4,5.65,6A4.67,4.67,0,0,1,144.68,59.18Z"/><path class="cls-1" d="M90.61,50.61c12,.2,23.63,4.75,33.42,13.94a48.1,48.1,0,0,1,4,4.29,4.72,4.72,0,0,1,.54,5.52,4.85,4.85,0,0,1-4.85,2.71,5,5,0,0,1-3.63-1.91,40.42,40.42,0,0,0-10.6-8.89A38.72,38.72,0,0,0,93,61,39.85,39.85,0,0,0,60.7,72.59c-.89.86-1.7,1.82-2.54,2.73A4.87,4.87,0,0,1,53,76.9a5.08,5.08,0,0,1-2.57-8.22A50.45,50.45,0,0,1,78.35,51.8,55.34,55.34,0,0,1,90.61,50.61Z"/><path class="cls-1" d="M88.83,70.85c9.77.24,17.58,3.8,23.69,11a5.07,5.07,0,0,1-7.67,6.63A21.9,21.9,0,0,0,98,83.05a20.19,20.19,0,0,0-22.89,3.76c-.53.53-1,1.09-1.54,1.65a5.08,5.08,0,0,1-7.66-6.67A30,30,0,0,1,84.79,71.24C86.25,71,87.74,71,88.83,70.85Z"/><path class="cls-1" d="M79.07,101.3A10.14,10.14,0,1,1,89,111.44,10.16,10.16,0,0,1,79.07,101.3Z"/></g></g></svg>