<svg xmlns="http://www.w3.org/2000/svg" viewBox="0 0 47.26 112.74"><defs><style>.cls-1{fill:#3b444b;}</style></defs><title>Yanga_1</title><g id="Calque_2" data-name="Calque 2"><g id="Calque_1-2" data-name="Calque 1"><path class="cls-1" d="M40.73,112.74H6.54A1.74,1.74,0,0,1,4.91,111L0,27.67a2.05,2.05,0,0,1,.44-1.41,1.52,1.52,0,0,1,1.19-.59h44a1.52,1.52,0,0,1,1.19.59,2.05,2.05,0,0,1,.44,1.41L42.35,111A1.74,1.74,0,0,1,40.73,112.74ZM8.06,109H39.2l4.69-79.59H3.37Z"/><rect class="cls-1" x="2.63" y="9.97" width="42" height="11.66"/><path class="cls-1" d="M44.63,23.37h-42a1.63,1.63,0,0,1-1.51-1.74V10A1.63,1.63,0,0,1,2.63,8.23h42A1.64,1.64,0,0,1,46.14,10V21.63A1.64,1.64,0,0,1,44.63,23.37ZM4.15,19.88h39V11.72h-39Z"/><rect class="cls-1" x="27.18" y="1.75" width="14.1" height="8.23"/><path class="cls-1" d="M41.27,11.72H27.18A1.65,1.65,0,0,1,25.66,10V1.74A1.64,1.64,0,0,1,27.18,0H41.27a1.64,1.64,0,0,1,1.52,1.74V10A1.65,1.65,0,0,1,41.27,11.72ZM28.69,8.23H39.76V3.49H28.69Z"/><path class="cls-1" d="M30.06,73.65l-6.24,6.42a.27.27,0,0,1-.38,0l-6.2-6.42H10.73l9,9.28a4.3,4.3,0,0,1,1.18,3v4.85H26.4V85.89a4.3,4.3,0,0,1,1.18-3l9-9.28Z"/><path class="cls-1" d="M23.64,53.43c-.34.6-.68,1.17-1,1.75s-.82,1.43-1.24,2.14a.33.33,0,0,0,0,.32c.37.85.73,1.7,1.09,2.56a.76.76,0,0,1-.62,1.09.79.79,0,0,1-.8-.51l-.62-1.44-.08-.19-.11.17-.86,1.47A.78.78,0,1,1,18,60l.84-1.53.1-.18-.85.1-.93.12A.78.78,0,1,1,17,57l2.1-.24.77-.1a.2.2,0,0,0,.13-.08l2.27-3.94v0H17.73a.28.28,0,0,0-.24.14c-.56.75-1.13,1.51-1.71,2.26a.75.75,0,0,1-1.24,0,.78.78,0,0,1,0-.93l1-1.26.11-.16h-2a.76.76,0,0,1-.15-1.5,1,1,0,0,1,.24,0h1.89l-.09-.14-1-1.27a.78.78,0,0,1,.09-1.12.8.8,0,0,1,1.14.19c.55.73,1.11,1.46,1.65,2.2a.33.33,0,0,0,.29.14h4.48s0-.09-.05-.13L20,47.1a.29.29,0,0,0-.18-.12L17,46.64a.77.77,0,0,1-.72-.89.79.79,0,0,1,.93-.65l1.74.22-.1-.18c-.29-.5-.59-1-.87-1.48a.77.77,0,0,1,1.08-1,1.13,1.13,0,0,1,.29.33c.29.47.56.95.84,1.43a1.26,1.26,0,0,1,.11.17c.14-.31.27-.6.39-.89l.31-.73a.77.77,0,1,1,1.41.61c-.35.85-.72,1.69-1.08,2.55a.36.36,0,0,0,0,.23l2.23,3.86.05.08.37-.63,1.87-3.23a.24.24,0,0,0,0-.27c-.37-.88-.74-1.76-1.12-2.64a.72.72,0,0,1,.12-.78.7.7,0,0,1,.73-.27.74.74,0,0,1,.59.49l.63,1.47.08.17L27.86,43a.81.81,0,0,1,.62-.44.77.77,0,0,1,.77,1.13c-.17.32-.36.63-.54.94l-.45.76.82-.09,1-.12a.76.76,0,1,1,.24,1.51c-.53.09-1.07.14-1.6.2L27.42,47a.28.28,0,0,0-.18.12Q26.12,49,25,51l0,.11h4.51a.31.31,0,0,0,.28-.14c.55-.74,1.11-1.48,1.67-2.21a.76.76,0,0,1,1.09-.19.77.77,0,0,1,.14,1.11c-.31.43-.63.84-.95,1.27l-.11.15h1.88a.84.84,0,0,1,.83,1,.76.76,0,0,1-.78.59c-.57,0-1.13,0-1.69,0h-.22l.11.17c.33.42.65.85,1,1.28a.74.74,0,0,1,.06.85.75.75,0,0,1-.74.39.77.77,0,0,1-.59-.36l-1.07-1.42-.62-.82a.27.27,0,0,0-.17-.08H25l.06.12,2.17,3.77a.31.31,0,0,0,.27.17l2.8.34a.77.77,0,0,1-.21,1.53l-1.6-.2-.2,0c.32.54.63,1,.93,1.58a1.33,1.33,0,0,1,.15.45.79.79,0,0,1-.55.79.77.77,0,0,1-.89-.35l-.89-1.51-.1-.17c-.08.18-.15.34-.21.5-.17.39-.33.78-.51,1.17a.78.78,0,0,1-.78.47.7.7,0,0,1-.66-.58,1.07,1.07,0,0,1,.06-.56c.34-.86.72-1.7,1.07-2.56a.29.29,0,0,0,0-.24q-1.1-1.93-2.21-3.85Z"/></g></g></svg>